<?xml version="1.0" encoding="UTF-8"?>
<svg id="Layer_2" data-name="Layer 2" xmlns="http://www.w3.org/2000/svg" viewBox="0 0 22 22">
  <defs>
    <style>
      .cls-1 {
        fill: #333;
      }
    </style>
  </defs>
  <g id="Layer_1-2" data-name="Layer 1">
    <path class="cls-1" d="M11,0C4.94,0,0,4.94,0,11s4.94,11,11,11,11-4.94,11-11S17.06,0,11,0Zm0,2.2c4.87,0,8.8,3.93,8.8,8.8,0,4.42-3.23,8.04-7.46,8.69v-6.07h2.56l.4-2.6h-2.96v-1.42c0-1.08,.35-2.04,1.36-2.04h1.62v-2.27c-.29-.04-.89-.12-2.03-.12-2.38,0-3.78,1.26-3.78,4.12v1.73h-2.45v2.6h2.45v6.04c-4.16-.7-7.32-4.3-7.32-8.67C2.2,6.13,6.13,2.2,11,2.2Z"/>
  </g>
</svg>