<?xml version="1.0" encoding="UTF-8"?>
<svg id="Layer_2" data-name="Layer 2" xmlns="http://www.w3.org/2000/svg" viewBox="0 0 22 22">
  <defs>
    <style>
      .cls-1 {
        fill: #333;
      }
    </style>
  </defs>
  <g id="Layer_1-2" data-name="Layer 1">
    <path class="cls-1" d="M6.47,0C2.92,0,0,2.91,0,6.47V15.53c0,3.55,2.91,6.47,6.47,6.47H15.53c3.55,0,6.47-2.91,6.47-6.47V6.47c0-3.55-2.91-6.47-6.47-6.47H6.47Zm0,2H15.53c2.47,0,4.47,2,4.47,4.47V15.53c0,2.47-2,4.47-4.47,4.47H6.47c-2.47,0-4.47-2-4.47-4.47V6.47c0-2.47,2-4.47,4.47-4.47Zm10.44,2.19c-.5,0-.91,.4-.91,.91s.4,.91,.91,.91,.91-.4,.91-.91-.4-.91-.91-.91Zm-5.91,.81c-3.3,0-6,2.7-6,6s2.7,6,6,6,6-2.7,6-6-2.7-6-6-6Zm0,2c2.22,0,4,1.78,4,4s-1.78,4-4,4-4-1.78-4-4,1.78-4,4-4Z"/>
  </g>
</svg>