<?xml version="1.0" encoding="UTF-8"?>
<svg id="Layer_2" data-name="Layer 2" xmlns="http://www.w3.org/2000/svg" viewBox="0 0 27.07 22">
  <defs>
    <style>
      .cls-1 {
        fill: #333;
      }
    </style>
  </defs>
  <g id="Layer_1-2" data-name="Layer 1">
    <path class="cls-1" d="M27.07,2.6c-1,.44-2.07,.74-3.19,.87,1.15-.69,2.03-1.78,2.44-3.07-1.07,.64-2.26,1.1-3.53,1.35-1.01-1.08-2.46-1.75-4.05-1.75-3.07,0-5.55,2.49-5.55,5.55,0,.44,.05,.86,.14,1.27-4.62-.23-8.71-2.44-11.45-5.8-.48,.82-.75,1.77-.75,2.79,0,1.93,.98,3.63,2.47,4.62-.91-.03-1.77-.28-2.52-.69v.07c0,2.69,1.91,4.94,4.46,5.45-.47,.13-.96,.19-1.46,.19-.36,0-.71-.04-1.04-.1,.71,2.21,2.76,3.81,5.19,3.86-1.9,1.49-4.3,2.38-6.9,2.38-.45,0-.89-.03-1.33-.08,2.46,1.58,5.38,2.49,8.51,2.49,10.22,0,15.8-8.46,15.8-15.8,0-.24,0-.48-.02-.72,1.09-.78,2.03-1.76,2.77-2.87Z"/>
  </g>
</svg>